<svg width="632" height="633" viewBox="0 0 632 633" fill="none" xmlns="http://www.w3.org/2000/svg">
<g filter="url(#filter0_d_68_18)">
<path d="M386.885 244.172H600.867C616.994 244.172 629.562 258.156 627.842 274.193L592.961 599.759C591.483 613.546 579.85 623.999 565.985 623.999H386.885V244.172Z" fill="#99774F"/>
<path d="M492.348 393.393V230.609H546.609C554.101 230.609 560.174 236.683 560.174 244.175V325.566C560.174 363.025 529.807 393.393 492.348 393.393Z" fill="#FFC0CF"/>
<path d="M438.087 624.001H58.2612C28.294 624.001 4 599.707 4 569.74V27.1306C4 12.147 16.1457 0 31.1306 0H465.218C480.201 0 492.348 12.1457 492.348 27.1306V569.74C492.348 599.707 468.054 624.001 438.087 624.001Z" fill="#DBDBDB"/>
<path d="M492.348 27.1306V108.522H4V27.1306C4 12.147 16.1457 0 31.1306 0H465.218C480.202 0 492.348 12.147 492.348 27.1306Z" fill="#E5E5E5"/>
<path d="M187.131 149.219H4V54.2617H187.131C213.353 54.2617 234.609 75.5189 234.609 101.74C234.609 127.962 213.353 149.219 187.131 149.219ZM329.566 94.9576C329.566 79.974 317.42 67.827 302.435 67.827C287.452 67.827 275.305 79.9727 275.305 94.9576C275.305 109.941 287.45 122.088 302.435 122.088C317.419 122.088 329.566 109.941 329.566 94.9576ZM424.523 94.9576C424.523 79.974 412.377 67.827 397.392 67.827C382.409 67.827 370.262 79.9727 370.262 94.9576C370.262 109.941 382.408 122.088 397.392 122.088C412.376 122.088 424.523 109.941 424.523 94.9576ZM438.087 379.828C438.087 274.941 353.061 189.915 248.174 189.915C143.287 189.915 58.2612 274.941 58.2612 379.828C58.2612 484.714 143.287 569.74 248.174 569.74C353.061 569.74 438.087 484.714 438.087 379.828Z" fill="#9B9B9B"/>
<path d="M71.8265 108.523H4V54.2617H71.8265H187.131C213.353 54.2617 234.609 75.5189 234.609 101.74C234.609 104.043 234.435 106.305 234.119 108.522H187.131L71.8265 108.523Z" fill="#C1C1C1"/>
<path d="M248.174 515.479C173.256 515.479 112.522 454.744 112.522 379.827C112.522 304.911 173.256 244.176 248.174 244.176C323.092 244.176 383.826 304.911 383.826 379.827C383.826 454.744 323.092 515.479 248.174 515.479Z" fill="#A2CCDB"/>
<path d="M383.827 379.826C383.827 454.744 323.093 515.478 248.175 515.478C228.881 515.478 210.531 511.441 193.914 504.179C241.821 483.245 275.306 435.449 275.306 379.825C275.306 324.201 241.821 276.404 193.914 255.471C210.531 248.209 228.881 244.172 248.175 244.172C323.092 244.173 383.827 304.907 383.827 379.826Z" fill="#B5E1F4"/>
</g>
<defs>
<filter id="filter0_d_68_18" x="0" y="0" width="632" height="632.002" filterUnits="userSpaceOnUse" color-interpolation-filters="sRGB">
<feFlood flood-opacity="0" result="BackgroundImageFix"/>
<feColorMatrix in="SourceAlpha" type="matrix" values="0 0 0 0 0 0 0 0 0 0 0 0 0 0 0 0 0 0 127 0" result="hardAlpha"/>
<feOffset dy="4"/>
<feGaussianBlur stdDeviation="2"/>
<feComposite in2="hardAlpha" operator="out"/>
<feColorMatrix type="matrix" values="0 0 0 0 0 0 0 0 0 0 0 0 0 0 0 0 0 0 0.25 0"/>
<feBlend mode="normal" in2="BackgroundImageFix" result="effect1_dropShadow_68_18"/>
<feBlend mode="normal" in="SourceGraphic" in2="effect1_dropShadow_68_18" result="shape"/>
</filter>
</defs>
</svg>
